<mxfile host="65bd71144e">
    <diagram id="n5_ofmvZNoqLwT4PhU_k" name="Page-1">
        <mxGraphModel dx="667" dy="497" grid="1" gridSize="10" guides="1" tooltips="1" connect="1" arrows="1" fold="1" page="1" pageScale="1" pageWidth="700" pageHeight="1400" math="0" shadow="0">
            <root>
                <mxCell id="0"/>
                <mxCell id="1" parent="0"/>
                <mxCell id="2" value="Assets" style="childLayout=tableLayout;recursiveResize=0;strokeColor=#98bf21;fillColor=#A7C942;shadow=0;rounded=0;glass=0;" vertex="1" parent="1">
                    <mxGeometry width="172" height="63" as="geometry"/>
                </mxCell>
                <mxCell id="3" style="shape=tableRow;horizontal=0;startSize=0;swimlaneHead=0;swimlaneBody=0;top=0;left=0;bottom=0;right=0;dropTarget=0;collapsible=0;recursiveResize=0;expand=0;fontStyle=0;strokeColor=inherit;fillColor=#ffffff;" vertex="1" parent="2">
                    <mxGeometry width="172" height="20" as="geometry"/>
                </mxCell>
                <mxCell id="4" value="column_1" style="connectable=0;recursiveResize=0;strokeColor=inherit;fillColor=#A7C942;align=center;fontStyle=1;fontColor=#FFFFFF;html=1;" vertex="1" parent="3">
                    <mxGeometry width="87" height="20" as="geometry">
                        <mxRectangle width="87" height="20" as="alternateBounds"/>
                    </mxGeometry>
                </mxCell>
                <mxCell id="5" value="column_2" style="connectable=0;recursiveResize=0;strokeColor=inherit;fillColor=#A7C942;align=center;fontStyle=1;fontColor=#FFFFFF;html=1;" vertex="1" parent="3">
                    <mxGeometry x="87" width="85" height="20" as="geometry">
                        <mxRectangle width="85" height="20" as="alternateBounds"/>
                    </mxGeometry>
                </mxCell>
                <mxCell id="6" value="" style="shape=tableRow;horizontal=0;startSize=0;swimlaneHead=0;swimlaneBody=0;top=0;left=0;bottom=0;right=0;dropTarget=0;collapsible=0;recursiveResize=0;expand=0;fontStyle=0;strokeColor=inherit;fillColor=#ffffff;" vertex="1" parent="2">
                    <mxGeometry y="20" width="172" height="20" as="geometry"/>
                </mxCell>
                <mxCell id="7" value="cell_11" style="connectable=0;recursiveResize=0;strokeColor=inherit;fillColor=inherit;align=center;whiteSpace=wrap;html=1;" vertex="1" parent="6">
                    <mxGeometry width="87" height="20" as="geometry">
                        <mxRectangle width="87" height="20" as="alternateBounds"/>
                    </mxGeometry>
                </mxCell>
                <mxCell id="8" value="cell_12" style="connectable=0;recursiveResize=0;strokeColor=inherit;fillColor=inherit;align=center;whiteSpace=wrap;html=1;" vertex="1" parent="6">
                    <mxGeometry x="87" width="85" height="20" as="geometry">
                        <mxRectangle width="85" height="20" as="alternateBounds"/>
                    </mxGeometry>
                </mxCell>
                <mxCell id="9" value="" style="shape=tableRow;horizontal=0;startSize=0;swimlaneHead=0;swimlaneBody=0;top=0;left=0;bottom=0;right=0;dropTarget=0;collapsible=0;recursiveResize=0;expand=0;fontStyle=1;strokeColor=inherit;fillColor=#EAF2D3;" vertex="1" parent="2">
                    <mxGeometry y="40" width="172" height="23" as="geometry"/>
                </mxCell>
                <mxCell id="10" value="cell_21" style="connectable=0;recursiveResize=0;strokeColor=inherit;fillColor=inherit;whiteSpace=wrap;html=1;" vertex="1" parent="9">
                    <mxGeometry width="87" height="23" as="geometry">
                        <mxRectangle width="87" height="23" as="alternateBounds"/>
                    </mxGeometry>
                </mxCell>
                <mxCell id="11" value="cell_22" style="connectable=0;recursiveResize=0;strokeColor=inherit;fillColor=inherit;whiteSpace=wrap;html=1;" vertex="1" parent="9">
                    <mxGeometry x="87" width="85" height="23" as="geometry">
                        <mxRectangle width="85" height="23" as="alternateBounds"/>
                    </mxGeometry>
                </mxCell>
            </root>
        </mxGraphModel>
    </diagram>
</mxfile>